HIERARCHY
ROOT Hips
{
  OFFSET -331.093 83.8371 -317.828
  CHANNELS 6 Xposition Yposition Zposition Zrotation Xrotation Yrotation
  JOINT LeftUpLeg
  {
    OFFSET 8.64259 1.95398 -2.38835
    CHANNELS 3 Zrotation Xrotation Yrotation
    JOINT LeftLeg
    {
      OFFSET 43.7702 0 0
      CHANNELS 3 Zrotation Xrotation Yrotation
      JOINT LeftFoot
      {
        OFFSET 40.6238 0 0
        CHANNELS 3 Zrotation Xrotation Yrotation
        JOINT LeftToeBase
        {
          OFFSET 12.7242 0 0
          CHANNELS 3 Zrotation Xrotation Yrotation
          End Site
          {
            OFFSET 0 0 0
          }
        }
      }
    }
  }
  JOINT RightUpLeg
  {
    OFFSET -8.2249 1.95398 -2.59336
    CHANNELS 3 Zrotation Xrotation Yrotation
    JOINT RightLeg
    {
      OFFSET 43.5653 0 0
      CHANNELS 3 Zrotation Xrotation Yrotation
      JOINT RightFoot
      {
        OFFSET 40.6238 0 0
        CHANNELS 3 Zrotation Xrotation Yrotation
        JOINT RightToeBase
        {
          OFFSET 12.7242 0 0
          CHANNELS 3 Zrotation Xrotation Yrotation
          End Site
          {
            OFFSET 0 0 0
          }
        }
      }
    }
  }
  JOINT Spine
  {
    OFFSET 0.165834 0.87714 6.61349
    CHANNELS 3 Zrotation Xrotation Yrotation
    JOINT Spine1
    {
      OFFSET 7.38963 1.71661e-005 0
      CHANNELS 3 Zrotation Xrotation Yrotation
      JOINT Spine2
      {
        OFFSET 11.9445 1.14441e-005 0
        CHANNELS 3 Zrotation Xrotation Yrotation
        JOINT Spine3
        {
          OFFSET 14.7254 4.19617e-005 0
          CHANNELS 3 Zrotation Xrotation Yrotation
          JOINT Spine4
          {
            OFFSET 10.9679 0 0
            CHANNELS 3 Zrotation Xrotation Yrotation
            JOINT RightShoulder
            {
              OFFSET 2.46616 -1.6653 3.69651
              CHANNELS 3 Zrotation Xrotation Yrotation
              JOINT RightArm
              {
                OFFSET 13.0012 0 0
                CHANNELS 3 Zrotation Xrotation Yrotation
                JOINT RightForeArm
                {
                  OFFSET 28.7848 1.62311e-005 0
                  CHANNELS 3 Zrotation Xrotation Yrotation
                  JOINT RightHand
                  {
                    OFFSET 26.5688 1.62095e-005 0
                    CHANNELS 3 Zrotation Xrotation Yrotation
                    End Site
                    {
                      OFFSET 0 0 0
                    }
                  }
                }
              }
            }
            JOINT LeftShoulder
            {
              OFFSET 2.38034 -1.29275 -3.7523
              CHANNELS 3 Zrotation Xrotation Yrotation
              JOINT LeftArm
              {
                OFFSET 16.3182 6.07031e-005 0
                CHANNELS 3 Zrotation Xrotation Yrotation
                JOINT LeftForeArm
                {
                  OFFSET 27.0901 0 0
                  CHANNELS 3 Zrotation Xrotation Yrotation
                  JOINT LeftHand
                  {
                    OFFSET 24.5451 1.51738e-005 0
                    CHANNELS 3 Zrotation Xrotation Yrotation
                    End Site
                    {
                      OFFSET 0 0 0
                    }
                  }
                }
              }
            }
            JOINT Neck
            {
              OFFSET 5.0226 -0.0266342 0
              CHANNELS 3 Zrotation Xrotation Yrotation
              JOINT Head
              {
                OFFSET 6.69364 2.86102e-005 0
                CHANNELS 3 Zrotation Xrotation Yrotation
                End Site
                {
                  OFFSET 0 0 0
                }
              }
            }
          }
        }
      }
    }
  }
}
MOTION
Frames:	14
Frame Time:	0.0416667
-51.5127 95.0744 -51.5342 88.5997 -36.0251 86.308 -174.773 -6.0477 88.583 -26.0169 24.7396 -0.0909901 66.65 5.29732 3.68334 48.4339 18.4076 6.26798 176.111 29.8454 86.6789 -7.39323 -3.48948 -2.62887 63.6352 -1.92887 -0.988487 50.8471 -4.00791 -11.214 -1.12553 7.48454 -89.8825 11.9112 -2.18269 0.469246 0.242 -2.15993 0.564895 -22.3079 -2.22276 -0.20876 -2.29521 -2.22276 -0.208763 90.9596 -43.9186 -100.352 37.6202 -12.2072 24.3941 -10.9617 -22.5592 -32.6989 -2.85575 -0.29946 2.50481 -93.8371 -45.6168 72.2488 -12.4485 8.26339 -10.8055 11.5041 4.73015 -57.8174 14.8208 0.999465 2.83082 1.00377 0.150305 1.46598 -4.29098 -0.0786862 0.489487 
-41.1662 92.3784 -38.637 90.3725 -35.9184 89.6827 -172.453 -11.011 95.3143 -33.7332 29.0935 2.47333 57.8701 -1.56048 -0.0985813 46.0753 20.2031 13.5513 177.101 32.1724 90.0328 -27.0524 -0.78403 -1.91251 60.8253 -0.574979 -0.325815 43.0437 -3.32321 -11.8239 -1.2651 7.54343 -90.1232 11.7922 -2.5738 0.0270231 0.123789 -2.57013 0.140347 -22.4309 -2.46285 -0.74824 -2.41821 -2.46286 -0.748244 91 -43.9436 -100.28 37.1621 -10.8168 25.9634 -10.541 -23.0354 -30.7591 -2.80953 -0.293632 1.88003 -93.8828 -46.2923 72.3811 -12.4923 4.77221 -8.28775 8.34734 1.68674 -59.9121 13.2563 0.936105 3.05727 -0.0651354 0.601676 1.40419 -4.26433 0.371353 1.41955 
-31.3932 92.2266 -26.8807 92.5653 -37.9608 94.3497 -171.462 -1.25172 100.355 -53.3872 22.3286 3.04831 44.9493 -10.5015 -3.85794 27.7859 3.92183 19.897 177.535 29.2595 96.4919 -42.6088 1.77884 -2.07651 67.4583 -2.43857 -1.54964 31.4447 -0.585528 -4.1845 -0.93089 7.64085 -90.4111 11.5853 -2.04411 -0.605823 -0.0841457 -2.06879 -0.515245 -22.6282 -1.76752 -1.19229 -2.61553 -1.76754 -1.19231 90.6383 -41.8173 -101.433 38.4145 -11.1213 21.7946 -10.2892 -20.2766 -32.684 -2.93799 -0.298667 3.10939 -95.6951 -48.7472 70.4084 -14.8244 6.09037 -3.40006 8.71618 4.17165 -54.4187 16.6325 1.3414 4.21034 -0.639868 0.448065 1.53494 -5.26463 0.203015 1.20094 
-22.1371 95.3312 -16.9288 93.2266 -40.4732 92.9873 -171.806 13.1846 94.7204 -61.6628 15.6812 0.886383 52.9438 -4.94223 0.423423 37.8833 13.6192 17.2451 178.38 16.601 96.8431 -37.084 1.05637 -4.3584 72.4818 -4.48446 -2.58225 31.2265 -0.523298 -3.42681 -0.393221 7.64525 -90.0543 11.5854 -0.807647 -0.0255025 -0.0852689 -0.807966 0.0100598 -22.6224 -0.762638 -0.267071 -2.60973 -0.762661 -0.267074 90.8237 -40.4506 -101.481 37.9103 -13.3809 13.0897 -10.3444 -15.2153 -39.7952 -7.41536 -0.488153 1.4612 -96.3319 -49.4535 69.6893 -20.4329 8.09586 0.628256 8.94519 11.8382 -42.3327 17.7184 1.58267 5.05985 -1.9515 -0.53034 1.07783 -5.09476 -0.672281 0.4887 
-12.8411 97.4738 -7.67928 92.0526 -44.833 89.8892 -172.215 21.6012 88.9817 -41.4507 6.39979 -2.50237 58.8864 -0.778755 0.764714 42.7929 19.3985 18.4066 176.425 5.19942 94.2347 -29.4827 -4.73201 -5.47454 72.7286 -4.51318 -2.57845 34.9694 -0.502657 -2.27443 0.22893 7.49303 -89.6849 11.8861 0.603606 0.563675 0.215155 0.627826 0.536563 -22.3196 0.406287 0.719018 -2.30696 0.406292 0.719023 91.2862 -38.6204 -101.181 34.3037 -16.1604 3.54819 -11.5482 -10.9553 -49.1407 -10.573 -0.582221 0.633084 -96.4399 -49.7077 69.6121 -26.0916 8.20473 8.57439 6.55573 16.5677 -33.5909 15.3386 1.37096 4.99005 -2.05179 -0.851235 1.54008 -4.65072 -1.02079 -0.499778 
-3.27683 96.7331 0.699192 88.7588 -50.0014 88.2553 -177.218 24.642 90.7503 -9.01227 -3.64591 -1.15672 61.8019 1.26624 -2.05779 40.0987 19.7762 24.648 174.101 -1.95636 92.218 -25.4492 -11.8732 -5.11748 73.4236 -6.06722 -3.16128 39.092 -0.956308 -3.63732 0.865008 7.35655 -89.7451 12.1594 1.84005 0.304677 0.489753 1.85167 0.223362 -22.0541 1.66339 0.843746 -2.04144 1.66338 0.843731 92.0989 -35.1357 -100.686 29.1816 -16.2665 -8.25764 -14.1448 -9.27202 -57.0794 -11.7741 -0.506507 -0.866474 -96.706 -50.6712 69.5317 -29.3391 6.36517 16.5737 6.72999 21.4435 -30.7821 12.8843 1.07555 4.32951 0.966889 -0.536927 2.69024 -6.27453 -0.906617 -0.581922 
7.32699 94.2079 9.9733 88.2493 -54.234 88.6251 -178.989 30.0123 93.5479 -7.68519 1.96982 -0.254999 62.9496 1.2612 -1.25357 42.9741 23.0732 24.486 173.184 -8.00404 89.2738 -30.1244 -17.7935 -7.42737 71.2466 -5.41885 -3.1084 50.0074 -2.21062 -6.0242 1.29985 7.42144 -89.7525 12.0304 2.7011 0.199643 0.362254 2.70725 0.0804729 -22.1929 2.51616 1.00272 -2.1803 2.51614 1.00271 92.0604 -34.205 -101.019 24.7579 -13.7642 -15.7519 -15.5138 -8.23312 -62.321 -12.8262 -0.584468 -0.394167 -95.1474 -50.242 71.666 -31.7417 3.99336 21.6846 6.95549 24.4194 -29.0555 11.9136 1.07336 4.90259 2.6163 -0.332124 1.96659 -6.73852 -0.662516 0.403911 
20.1716 92.4865 20.3815 89.9128 -52.6623 85.8223 -176.043 31.718 87.4395 -24.8699 9.55337 -3.05484 57.078 -1.44587 2.46045 39.7682 12.4567 10.2843 173.33 -5.43275 83.6887 -46.614 -14.7773 -9.2021 52.5601 4.36182 3.34972 38.7086 -0.376851 0.432117 1.13924 7.4542 -89.2277 11.9555 2.62943 1.25584 0.286806 2.68215 1.13884 -22.2591 2.13043 1.98816 -2.24647 2.13041 1.98816 91.5545 -36.8407 -101.201 25.6628 -12.275 -10.2598 -15.1397 -6.20017 -64.7148 -14.9733 -0.716321 0.102116 -95.3943 -49.6363 71.1225 -31.3072 4.14073 22.2921 6.10704 28.466 -25.9106 10.0769 0.903107 4.71219 1.04373 -1.20633 0.251907 -6.65255 -1.23635 0.0471143 
31.4725 93.8536 29.6383 91.3804 -50.3187 85.6199 -175.422 26.3343 83.356 -33.9154 10.8381 -3.46547 61.8813 2.13244 5.28783 33.8311 3.5396 -0.805101 177.835 8.99942 83.8421 -67.7697 -1.33669 -6.8563 43.8754 6.22396 5.25657 23.324 -0.38278 -6.80417 0.663881 7.55936 -89.1543 11.7421 1.71749 1.50489 0.0714727 1.78206 1.42783 -22.4617 1.18591 1.95141 -2.44903 1.18591 1.9514 91.7025 -38.2112 -100.558 29.827 -14.758 -3.12807 -13.4834 -8.21496 -58.4325 -14.5109 -0.652113 -0.307279 -96.4017 -49.2588 69.5248 -30.2712 4.9889 17.7358 7.16117 25.247 -28.5701 10.6991 0.938507 4.59369 0.725176 -0.79274 0.902814 -5.78242 -0.919877 0.10789 
41.707 96.9363 38.8901 91.5239 -46.3669 88.0425 -177.168 15.069 84.1444 -29.5198 12.3208 -1.52425 64.6783 3.833 4.77964 34.5474 4.52134 0.70971 177.312 22.0184 89.0998 -67.2476 2.09991 -3.98705 56.7154 0.986184 0.500687 32.0735 -1.60837 -10.758 0.0497693 7.53454 -89.5778 11.8018 0.297589 0.811007 0.130652 0.333009 0.797108 -22.4024 0.0400938 0.862938 -2.38972 0.0400963 0.862943 91.3002 -40.1711 -100.738 33.7478 -17.6588 5.9561 -11.9023 -12.6167 -48.4361 -13.4317 -0.614029 -0.381784 -96.6073 -48.8908 69.1032 -26.5059 9.96171 10.0709 7.74752 17.0262 -36.3439 13.7775 1.17972 4.56337 -1.31629 -0.121262 2.03399 -5.22857 -0.390999 0.318196 
51.1152 97.8005 47.9804 89.9329 -41.9076 87.4137 -177.18 5.7218 84.799 -25.3071 14.5006 -0.812634 66.0201 3.95618 3.61276 38.2059 8.58586 4.08021 175.414 27.0023 90.332 -39.7156 7.20997 -1.58823 62.9536 -2.20013 -1.33738 36.9381 -1.91167 -9.14897 -0.538169 7.45349 -89.7568 11.9692 -0.955364 0.587846 0.298475 -0.928569 0.629321 -22.2392 -1.08787 0.273521 -2.22656 -1.08788 0.27352 90.8351 -42.1867 -101.003 36.3916 -16.6678 14.8437 -10.4703 -18.1698 -39.2212 -8.16247 -0.531395 1.21024 -95.5566 -47.1829 70.1171 -20.5287 12.696 0.660217 9.01619 9.67018 -46.3513 15.5848 1.32028 4.54593 -2.43821 0.0422913 1.57052 -4.1774 -0.163884 1.01467 
60.6654 96.1191 57.8036 89.0847 -37.9598 85.9554 -176.161 -2.31461 85.866 -24.9792 19.6941 -0.427593 67.4539 5.50374 4.07186 44.4538 14.1356 4.79407 175.662 27.9807 88.6368 -9.5202 0.939233 -1.75485 64.2289 -2.30619 -1.23178 45.0408 -2.54307 -8.53483 -1.00868 7.48356 -89.745 11.9136 -1.88549 0.711683 0.243786 -1.85235 0.793995 -22.3022 -2.0122 0.111906 -2.28953 -2.01217 0.111899 90.9358 -43.7812 -100.425 37.1895 -13.5917 22.4418 -10.6562 -21.6717 -34.784 -5.36869 -0.439428 2.17541 -94.4057 -45.2583 71.2612 -13.8029 11.1266 -9.71139 10.17 6.25968 -52.6771 15.5983 1.20097 3.77967 -1.68895 0.508758 0.436291 -2.8537 0.43881 1.58604 
71.0114 93.0091 69.1746 90.1837 -36.7008 86.6076 -174.472 -9.74044 89.7923 -29.1923 27.3271 0.919631 64.5571 4.17105 4.06596 52.604 22.2976 6.41449 176.874 29.4423 88.8966 -12.7784 -0.492513 -2.10711 64.1775 -3.15975 -1.65072 46.2617 -2.51492 -7.93474 -1.2512 7.55029 -89.8006 11.7823 -2.39459 0.651164 0.113338 -2.3636 0.75597 -22.4395 -2.4795 -0.0990496 -2.42691 -2.47952 -0.0990526 91.0499 -44.2499 -100.122 36.6305 -11.0589 26.6659 -9.95301 -21.8387 -32.1676 -4.14254 -0.373259 2.61858 -93.9492 -45.0007 71.8876 -11.381 6.41601 -12.6811 10.5138 4.18594 -57.2518 16.5606 1.28745 3.88025 -0.679584 1.56559 1.44639 -3.2642 1.34242 1.24412 
81.7401 91.4218 81.8959 92.1619 -37.9593 93.2807 -170.751 -9.08583 99.2913 -41.1139 26.0094 2.59049 49.4993 -7.40341 -2.73434 38.3806 16.4054 21.564 176.339 33.2606 95.8826 -39.3065 3.41941 -0.577887 63.4886 -0.761773 -0.545129 35.6539 -1.10355 -5.42662 -1.12482 7.59993 -90.4546 11.6648 -2.45041 -0.650052 -0.00403351 -2.47663 -0.541528 -22.5525 -2.14173 -1.35672 -2.53982 -2.14173 -1.35672 90.5854 -43.4864 -101.078 35.4828 -10.9299 25.0382 -8.84173 -20.8636 -30.9464 -2.83141 -0.28764 2.98228 -95.0226 -47.7023 71.086 -12.5848 4.53893 -7.02565 8.85823 2.6416 -58.5343 17.7815 1.36545 3.80925 -0.920747 1.78804 3.13403 -4.76068 1.31822 1.69487 
